<svg preserveAspectRatio="none" width="100%" height="100%" overflow="visible" style="display: block;" viewBox="0 0 25 26" fill="none" xmlns="http://www.w3.org/2000/svg">
<g id="Frame" clip-path="url(#clip0_0_4)">
<g id="Vector">
</g>
<path id="Vector_2" d="M19.2708 8.66667C19.0938 8.66667 18.9167 8.68833 18.75 8.72083V4.875C18.75 3.38 17.5833 2.16667 16.1458 2.16667C15.9479 2.16667 15.7604 2.18833 15.5833 2.23167C15.3646 0.964167 14.3021 0 13.0208 0C11.9167 0 10.9792 0.715 10.5938 1.7225C10.375 1.6575 10.1354 1.625 9.89583 1.625C8.45833 1.625 7.29167 2.83833 7.29167 4.33333V4.92917C7.125 4.89667 6.94792 4.875 6.77083 4.875C5.33333 4.875 4.16667 6.08833 4.16667 7.58333V16.7917C4.16667 21.8725 8.13542 26 13.0208 26C17.9063 26 21.875 21.8725 21.875 16.7917V11.375C21.875 9.88 20.7083 8.66667 19.2708 8.66667ZM19.7917 16.7917C19.7917 20.6808 16.7604 23.8333 13.0208 23.8333C9.28125 23.8333 6.25 20.6808 6.25 16.7917V7.58333C6.25 7.28 6.47917 7.04167 6.77083 7.04167C7.0625 7.04167 7.29167 7.28 7.29167 7.58333V13H9.375V4.33333C9.375 4.03 9.60417 3.79167 9.89583 3.79167C10.1875 3.79167 10.4167 4.03 10.4167 4.33333V11.9167H12.5V2.70833C12.5 2.405 12.7292 2.16667 13.0208 2.16667C13.3125 2.16667 13.5417 2.405 13.5417 2.70833V11.9167H15.625V4.875C15.625 4.57167 15.8542 4.33333 16.1458 4.33333C16.4375 4.33333 16.6667 4.57167 16.6667 4.875V14.5383C14.8229 15.3725 13.5417 17.2792 13.5417 19.5H15.625C15.625 17.7017 17.0208 16.25 18.75 16.25V11.375C18.75 11.0717 18.9792 10.8333 19.2708 10.8333C19.5625 10.8333 19.7917 11.0717 19.7917 11.375V16.7917Z" fill="var(--fill-0, #633806)"/>
</g>
<defs>
<clipPath id="clip0_0_4">
<rect width="25" height="26" fill="white"/>
</clipPath>
</defs>
</svg>
