<svg preserveAspectRatio="none" width="100%" height="100%" overflow="visible" style="display: block;" viewBox="0 0 392.795 401.717" fill="none" xmlns="http://www.w3.org/2000/svg">
<path id="Star 3" opacity="0.4" d="M176.419 19.1662C178.726 -5.05508 214.069 -5.05508 216.376 19.1662C218.392 40.3322 246.231 46.6857 257.231 28.4904C269.819 7.66951 301.661 23.004 293.23 45.8273C285.863 65.7721 308.189 83.576 325.994 71.9553C346.369 58.6573 368.405 86.2891 350.907 103.195C335.616 117.967 348.005 143.695 369.089 140.95C393.216 137.81 401.081 172.266 377.98 179.905C357.794 186.581 357.794 215.136 377.98 221.812C401.081 229.451 393.216 263.907 369.089 260.767C348.005 258.022 335.616 283.75 350.907 298.523C368.405 315.428 346.369 343.06 325.994 329.762C308.189 318.141 285.863 335.945 293.23 355.89C301.661 378.713 269.819 394.048 257.231 373.227C246.231 355.031 218.392 361.385 216.376 382.551C214.069 406.772 178.726 406.772 176.419 382.551C174.403 361.385 146.563 355.031 135.563 373.227C122.976 394.048 91.1337 378.713 99.5644 355.89C106.932 335.945 84.606 318.141 66.8007 329.762C46.4256 343.06 24.3897 315.428 41.8876 298.523C57.179 283.75 44.79 258.022 23.706 260.767C-0.421264 263.907 -8.28602 229.451 14.8144 221.812C35.0013 215.136 35.0013 186.581 14.8144 179.905C-8.28602 172.266 -0.421277 137.81 23.706 140.95C44.79 143.695 57.179 117.968 41.8876 103.195C24.3897 86.2892 46.4255 58.6573 66.8007 71.9553C84.606 83.576 106.932 65.7721 99.5644 45.8273C91.1337 23.004 122.976 7.66951 135.563 28.4904C146.563 46.6857 174.403 40.3322 176.419 19.1662Z" stroke="var(--stroke-0, #121212)" stroke-width="2"/>
</svg>
