<svg preserveAspectRatio="none" width="100%" height="100%" overflow="visible" style="display: block;" viewBox="0 0 20 20" fill="none" xmlns="http://www.w3.org/2000/svg">
<g id="Frame">
<path id="Vector" d="M3.33333 15.8333V9.6875L2.5 10.3333C2.30556 10.4722 2.09722 10.5278 1.875 10.5C1.65278 10.4722 1.47222 10.3611 1.33333 10.1667C1.19444 9.97222 1.13889 9.76389 1.16667 9.54167C1.19444 9.31944 1.29861 9.13889 1.47917 9L3.33333 7.58333V5.83333C3.33333 5.59722 3.41319 5.39931 3.57292 5.23958C3.73264 5.07986 3.93056 5 4.16667 5C4.40278 5 4.60069 5.07986 4.76042 5.23958C4.92014 5.39931 5 5.59722 5 5.83333V6.3125L8.97917 3.27083C9.28472 3.03472 9.625 2.91667 10 2.91667C10.375 2.91667 10.7153 3.03472 11.0208 3.27083L18.5208 9C18.7014 9.13889 18.8056 9.31944 18.8333 9.54167C18.8611 9.76389 18.8056 9.97222 18.6667 10.1667C18.5278 10.3472 18.3472 10.4514 18.125 10.4792C17.9028 10.5069 17.7014 10.4514 17.5208 10.3125L16.6667 9.6875V15.8333C16.6667 16.2917 16.5035 16.684 16.1771 17.0104C15.8507 17.3368 15.4583 17.5 15 17.5H5C4.54167 17.5 4.14931 17.3368 3.82292 17.0104C3.49653 16.684 3.33333 16.2917 3.33333 15.8333ZM5 15.8333H9.16667V13.3333C9.16667 13.0972 9.24653 12.8993 9.40625 12.7396C9.56597 12.5799 9.76389 12.5 10 12.5C10.2361 12.5 10.434 12.5799 10.5937 12.7396C10.7535 12.8993 10.8333 13.0972 10.8333 13.3333V15.8333H15V8.41667L10 4.60417L5 8.41667V15.8333ZM4.41667 4.16667C4.09722 4.16667 3.85069 4.03472 3.67708 3.77083C3.50347 3.50694 3.49306 3.23611 3.64583 2.95833C3.88194 2.55556 4.19097 2.23958 4.57292 2.01042C4.95486 1.78125 5.375 1.66667 5.83333 1.66667C5.98611 1.66667 6.13194 1.62847 6.27083 1.55208C6.40972 1.47569 6.51389 1.36806 6.58333 1.22917C6.65278 1.10417 6.74653 1.00694 6.86458 0.9375C6.98264 0.868055 7.11806 0.833333 7.27083 0.833333C7.59028 0.833333 7.83333 0.965278 8 1.22917C8.16667 1.49306 8.17361 1.76389 8.02083 2.04167C7.78472 2.44444 7.47569 2.76042 7.09375 2.98958C6.71181 3.21875 6.29167 3.33333 5.83333 3.33333C5.68056 3.33333 5.53472 3.36806 5.39583 3.4375C5.25694 3.50694 5.15278 3.61806 5.08333 3.77083C5.01389 3.89583 4.92361 3.99306 4.8125 4.0625C4.70139 4.13194 4.56944 4.16667 4.41667 4.16667Z" fill="var(--fill-0, #5DCAA5)"/>
</g>
</svg>
