<svg preserveAspectRatio="none" width="100%" height="100%" overflow="visible" style="display: block;" viewBox="0 0 20 20" fill="none" xmlns="http://www.w3.org/2000/svg">
<g id="Frame">
<path id="Vector" d="M17.5 6.66667C17.9444 6.66667 18.3333 6.83333 18.6667 7.16667C19 7.5 19.1667 7.88889 19.1667 8.33333V10C19.1667 10.0972 19.1528 10.2014 19.125 10.3125C19.0972 10.4236 19.0694 10.5278 19.0417 10.625L16.5417 16.5C16.4167 16.7778 16.2083 17.0139 15.9167 17.2083C15.625 17.4028 15.3194 17.5 15 17.5H5.83333V6.66667L10.8333 1.70833C11.0417 1.5 11.2882 1.37847 11.5729 1.34375C11.8576 1.30903 12.1319 1.36111 12.3958 1.5C12.6597 1.63889 12.8542 1.83333 12.9792 2.08333C13.1042 2.33333 13.1319 2.59028 13.0625 2.85417L12.125 6.66667H17.5ZM7.5 7.375V15.8333H15L17.5 10V8.33333H10L11.125 3.75L7.5 7.375ZM3.33333 17.5C2.875 17.5 2.48264 17.3368 2.15625 17.0104C1.82986 16.684 1.66667 16.2917 1.66667 15.8333V8.33333C1.66667 7.875 1.82986 7.48264 2.15625 7.15625C2.48264 6.82986 2.875 6.66667 3.33333 6.66667H5.83333V8.33333H3.33333V15.8333H5.83333V17.5H3.33333Z" fill="var(--fill-0, #5A5C5B)"/>
</g>
</svg>
