<svg preserveAspectRatio="none" width="100%" height="100%" overflow="visible" style="display: block;" viewBox="0 0 20 20" fill="none" xmlns="http://www.w3.org/2000/svg">
<g id="Frame" clip-path="url(#clip0_0_13)">
<g id="Vector">
</g>
<path id="Vector_2" d="M16.1917 10.8167C16.225 10.55 16.25 10.2833 16.25 10C16.25 9.71667 16.225 9.45 16.1917 9.18333L17.95 7.80833C18.1083 7.68333 18.15 7.45833 18.05 7.275L16.3833 4.39167C16.3083 4.25833 16.1667 4.18333 16.0167 4.18333C15.9667 4.18333 15.9167 4.19167 15.875 4.20833L13.8 5.04167C13.3667 4.70833 12.9 4.43333 12.3917 4.225L12.075 2.01667C12.05 1.81667 11.875 1.66667 11.6667 1.66667H8.33333C8.125 1.66667 7.95 1.81667 7.925 2.01667L7.60833 4.225C7.1 4.43333 6.63333 4.71667 6.2 5.04167L4.125 4.20833C4.075 4.19167 4.025 4.18333 3.975 4.18333C3.83333 4.18333 3.69167 4.25833 3.61667 4.39167L1.95 7.275C1.84167 7.45833 1.89167 7.68333 2.05 7.80833L3.80833 9.18333C3.775 9.45 3.75 9.725 3.75 10C3.75 10.275 3.775 10.55 3.80833 10.8167L2.05 12.1917C1.89167 12.3167 1.85 12.5417 1.95 12.725L3.61667 15.6083C3.69167 15.7417 3.83333 15.8167 3.98333 15.8167C4.03333 15.8167 4.08333 15.8083 4.125 15.7917L6.2 14.9583C6.63333 15.2917 7.1 15.5667 7.60833 15.775L7.925 17.9833C7.95 18.1833 8.125 18.3333 8.33333 18.3333H11.6667C11.875 18.3333 12.05 18.1833 12.075 17.9833L12.3917 15.775C12.9 15.5667 13.3667 15.2833 13.8 14.9583L15.875 15.7917C15.925 15.8083 15.975 15.8167 16.025 15.8167C16.1667 15.8167 16.3083 15.7417 16.3833 15.6083L18.05 12.725C18.15 12.5417 18.1083 12.3167 17.95 12.1917L16.1917 10.8167ZM14.5417 9.39167C14.575 9.65 14.5833 9.825 14.5833 10C14.5833 10.175 14.5667 10.3583 14.5417 10.6083L14.425 11.55L15.1667 12.1333L16.0667 12.8333L15.4833 13.8417L14.425 13.4167L13.5583 13.0667L12.8083 13.6333C12.45 13.9 12.1083 14.1 11.7667 14.2417L10.8833 14.6L10.75 15.5417L10.5833 16.6667H9.41667L9.25833 15.5417L9.125 14.6L8.24167 14.2417C7.88333 14.0917 7.55 13.9 7.21667 13.65L6.45833 13.0667L5.575 13.425L4.51667 13.85L3.93333 12.8417L4.83333 12.1417L5.575 11.5583L5.45833 10.6167C5.43333 10.3583 5.41667 10.1667 5.41667 10C5.41667 9.83333 5.43333 9.64167 5.45833 9.39167L5.575 8.45L4.83333 7.86667L3.93333 7.16667L4.51667 6.15833L5.575 6.58333L6.44167 6.93333L7.19167 6.36667C7.55 6.1 7.89167 5.9 8.23333 5.75833L9.11667 5.4L9.25 4.45833L9.41667 3.33333H10.575L10.7333 4.45833L10.8667 5.4L11.75 5.75833C12.1083 5.90833 12.4417 6.1 12.775 6.35L13.5333 6.93333L14.4167 6.575L15.475 6.15L16.0583 7.15833L15.1667 7.86667L14.425 8.45L14.5417 9.39167ZM10 6.66667C8.15833 6.66667 6.66667 8.15833 6.66667 10C6.66667 11.8417 8.15833 13.3333 10 13.3333C11.8417 13.3333 13.3333 11.8417 13.3333 10C13.3333 8.15833 11.8417 6.66667 10 6.66667ZM10 11.6667C9.08333 11.6667 8.33333 10.9167 8.33333 10C8.33333 9.08333 9.08333 8.33333 10 8.33333C10.9167 8.33333 11.6667 9.08333 11.6667 10C11.6667 10.9167 10.9167 11.6667 10 11.6667Z" fill="var(--fill-0, #5DCAA5)"/>
</g>
<defs>
<clipPath id="clip0_0_13">
<rect width="20" height="20" fill="white"/>
</clipPath>
</defs>
</svg>
