<svg preserveAspectRatio="none" width="100%" height="100%" overflow="visible" style="display: block;" viewBox="0 0 20 20" fill="none" xmlns="http://www.w3.org/2000/svg">
<g id="Frame" clip-path="url(#clip0_0_26)">
<g id="Vector">
</g>
<path id="Vector_2" d="M9.99167 1.66667C5.39167 1.66667 1.66667 5.4 1.66667 10C1.66667 14.6 5.39167 18.3333 9.99167 18.3333C14.6 18.3333 18.3333 14.6 18.3333 10C18.3333 5.4 14.6 1.66667 9.99167 1.66667ZM10 16.6667C6.31667 16.6667 3.33333 13.6833 3.33333 10C3.33333 6.31667 6.31667 3.33333 10 3.33333C13.6833 3.33333 16.6667 6.31667 16.6667 10C16.6667 13.6833 13.6833 16.6667 10 16.6667ZM10.4167 5.83333H9.16667V10.8333L13.5417 13.4583L14.1667 12.4333L10.4167 10.2083V5.83333Z" fill="var(--fill-0, #5DCAA5)"/>
</g>
<defs>
<clipPath id="clip0_0_26">
<rect width="20" height="20" fill="white"/>
</clipPath>
</defs>
</svg>
