<svg preserveAspectRatio="none" width="100%" height="100%" overflow="visible" style="display: block;" viewBox="0 0 18 18" fill="none" xmlns="http://www.w3.org/2000/svg">
<g id="Frame">
<path id="Vector" d="M11.8125 9.4125H4.27462C4.0835 9.4125 3.92325 9.34819 3.79387 9.21956C3.66462 9.09094 3.6 8.93156 3.6 8.74144C3.6 8.55131 3.66462 8.39063 3.79387 8.25938C3.92325 8.12813 4.0835 8.0625 4.27462 8.0625H11.8125L8.50856 4.75856C8.37369 4.62369 8.30625 4.46562 8.30625 4.28437C8.30625 4.10312 8.375 3.94075 8.5125 3.79725C8.65 3.66575 8.80937 3.6 8.99062 3.6C9.17187 3.6 9.33006 3.66763 9.46519 3.80288L13.9237 8.26706C13.9912 8.33469 14.0406 8.40794 14.0719 8.48681C14.1031 8.56569 14.1187 8.65025 14.1187 8.7405C14.1187 8.83063 14.1031 8.91519 14.0719 8.99419C14.0406 9.07306 13.9937 9.14375 13.9312 9.20625L9.46875 13.6688C9.33125 13.8063 9.175 13.8719 9 13.8656C8.825 13.8594 8.66875 13.7905 8.53125 13.659C8.39375 13.5155 8.325 13.3521 8.325 13.1687C8.325 12.9854 8.39375 12.8271 8.53125 12.6938L11.8125 9.4125Z" fill="var(--fill-0, #1A1A1A)" fill-opacity="0.7"/>
</g>
</svg>
