<svg preserveAspectRatio="none" width="100%" height="100%" overflow="visible" style="display: block;" viewBox="0 0 20 20" fill="none" xmlns="http://www.w3.org/2000/svg">
<g id="Frame">
<path id="Vector" d="M3.33333 16.6667V9.16667C2.875 9.16667 2.48264 9.00347 2.15625 8.67708C1.82986 8.35069 1.66667 7.95833 1.66667 7.5V5.83333C1.66667 5.375 1.82986 4.98264 2.15625 4.65625C2.48264 4.32986 2.875 4.16667 3.33333 4.16667H6C5.93056 4.04167 5.88542 3.90972 5.86458 3.77083C5.84375 3.63194 5.83333 3.48611 5.83333 3.33333C5.83333 2.63889 6.07639 2.04861 6.5625 1.5625C7.04861 1.07639 7.63889 0.833333 8.33333 0.833333C8.65278 0.833333 8.95139 0.892361 9.22917 1.01042C9.50694 1.12847 9.76389 1.29167 10 1.5C10.2361 1.27778 10.4931 1.11111 10.7708 1C11.0486 0.888889 11.3472 0.833333 11.6667 0.833333C12.3611 0.833333 12.9514 1.07639 13.4375 1.5625C13.9236 2.04861 14.1667 2.63889 14.1667 3.33333C14.1667 3.48611 14.1528 3.62847 14.125 3.76042C14.0972 3.89236 14.0556 4.02778 14 4.16667H16.6667C17.125 4.16667 17.5174 4.32986 17.8437 4.65625C18.1701 4.98264 18.3333 5.375 18.3333 5.83333V7.5C18.3333 7.95833 18.1701 8.35069 17.8437 8.67708C17.5174 9.00347 17.125 9.16667 16.6667 9.16667V16.6667C16.6667 17.125 16.5035 17.5174 16.1771 17.8438C15.8507 18.1701 15.4583 18.3333 15 18.3333H5C4.54167 18.3333 4.14931 18.1701 3.82292 17.8438C3.49653 17.5174 3.33333 17.125 3.33333 16.6667ZM11.0729 2.73958C10.9132 2.89931 10.8333 3.09722 10.8333 3.33333C10.8333 3.56944 10.9132 3.76736 11.0729 3.92708C11.2326 4.08681 11.4306 4.16667 11.6667 4.16667C11.9028 4.16667 12.1007 4.08681 12.2604 3.92708C12.4201 3.76736 12.5 3.56944 12.5 3.33333C12.5 3.09722 12.4201 2.89931 12.2604 2.73958C12.1007 2.57986 11.9028 2.5 11.6667 2.5C11.4306 2.5 11.2326 2.57986 11.0729 2.73958ZM7.5 3.33333C7.5 3.56944 7.57986 3.76736 7.73958 3.92708C7.89931 4.08681 8.09722 4.16667 8.33333 4.16667C8.56944 4.16667 8.76736 4.08681 8.92708 3.92708C9.0868 3.76736 9.16667 3.56944 9.16667 3.33333C9.16667 3.09722 9.0868 2.89931 8.92708 2.73958C8.76736 2.57986 8.56944 2.5 8.33333 2.5C8.09722 2.5 7.89931 2.57986 7.73958 2.73958C7.57986 2.89931 7.5 3.09722 7.5 3.33333ZM3.33333 5.83333V7.5H9.16667V5.83333H3.33333ZM9.16667 16.6667V9.16667H5V16.6667H9.16667ZM10.8333 16.6667H15V9.16667H10.8333V16.6667ZM16.6667 7.5V5.83333H10.8333V7.5H16.6667Z" fill="var(--fill-0, #5DCAA5)"/>
</g>
</svg>
