<svg preserveAspectRatio="none" width="100%" height="100%" overflow="visible" style="display: block;" viewBox="0 0 26 26" fill="none" xmlns="http://www.w3.org/2000/svg">
<g id="Frame">
<path id="Vector" d="M2.95208 22.75C2.75347 22.75 2.57292 22.7003 2.41042 22.601C2.24792 22.5017 2.12153 22.3708 2.03125 22.2083C1.94097 22.0458 1.89132 21.8698 1.88229 21.6802C1.87326 21.4906 1.92292 21.3056 2.03125 21.125L12.0521 3.79167C12.1604 3.61111 12.3003 3.47569 12.4719 3.38542C12.6434 3.29514 12.8194 3.25 13 3.25C13.1806 3.25 13.3566 3.29514 13.5281 3.38542C13.6997 3.47569 13.8396 3.61111 13.9479 3.79167L23.9687 21.125C24.0771 21.3056 24.1267 21.4906 24.1177 21.6802C24.1087 21.8698 24.059 22.0458 23.9687 22.2083C23.8785 22.3708 23.7521 22.5017 23.5896 22.601C23.4271 22.7003 23.2465 22.75 23.0479 22.75H2.95208ZM4.82083 20.5833H21.1792L13 6.5L4.82083 20.5833ZM13.7719 19.1885C13.9795 18.9809 14.0833 18.7236 14.0833 18.4167C14.0833 18.1097 13.9795 17.8524 13.7719 17.6448C13.5642 17.4372 13.3069 17.3333 13 17.3333C12.6931 17.3333 12.4358 17.4372 12.2281 17.6448C12.0205 17.8524 11.9167 18.1097 11.9167 18.4167C11.9167 18.7236 12.0205 18.9809 12.2281 19.1885C12.4358 19.3962 12.6931 19.5 13 19.5C13.3069 19.5 13.5642 19.3962 13.7719 19.1885ZM13.7719 15.9385C13.9795 15.7309 14.0833 15.4736 14.0833 15.1667V11.9167C14.0833 11.6097 13.9795 11.3524 13.7719 11.1448C13.5642 10.9372 13.3069 10.8333 13 10.8333C12.6931 10.8333 12.4358 10.9372 12.2281 11.1448C12.0205 11.3524 11.9167 11.6097 11.9167 11.9167V15.1667C11.9167 15.4736 12.0205 15.7309 12.2281 15.9385C12.4358 16.1462 12.6931 16.25 13 16.25C13.3069 16.25 13.5642 16.1462 13.7719 15.9385Z" fill="var(--fill-0, #FCEBEB)"/>
</g>
</svg>
