<svg preserveAspectRatio="none" width="100%" height="100%" overflow="visible" style="display: block;" viewBox="0 0 14 9.98469" fill="none" xmlns="http://www.w3.org/2000/svg">
<g id="Frame" clip-path="url(#clip0_0_29)">
<path id="Vector" d="M9.29687 6.52083H3.43408C3.28543 6.52083 3.16079 6.47081 3.06017 6.37077C2.95964 6.27073 2.90938 6.14677 2.90938 5.9989C2.90938 5.85102 2.95964 5.72604 3.06017 5.62396C3.16079 5.52188 3.28543 5.47083 3.43408 5.47083H9.29687L6.72715 2.9011C6.62224 2.7962 6.56979 2.67326 6.56979 2.53229C6.56979 2.39132 6.62326 2.26503 6.73021 2.15342C6.83715 2.05114 6.96111 2 7.10208 2C7.24306 2 7.36609 2.0526 7.47119 2.15779L10.939 5.62994C10.9915 5.68253 11.0299 5.73951 11.0542 5.80085C11.0785 5.8622 11.0906 5.92797 11.0906 5.99817C11.0906 6.06826 11.0785 6.13403 11.0542 6.19548C11.0299 6.25683 10.9934 6.31181 10.9448 6.36042L7.47396 9.83125C7.36701 9.93819 7.24549 9.98924 7.10937 9.98438C6.97326 9.97951 6.85174 9.92594 6.74479 9.82367C6.63785 9.71206 6.58437 9.58494 6.58437 9.44231C6.58437 9.29978 6.63785 9.17665 6.74479 9.07292L9.29687 6.52083Z" fill="var(--fill-0, white)"/>
</g>
<defs>
<clipPath id="clip0_0_29">
<rect width="14" height="9.98469" fill="white"/>
</clipPath>
</defs>
</svg>
