<svg preserveAspectRatio="none" width="100%" height="100%" overflow="visible" style="display: block;" viewBox="0 0 20 20" fill="none" xmlns="http://www.w3.org/2000/svg">
<g id="Frame">
<path id="Vector" d="M6 17.5C5.54167 17.5 5.14931 17.3368 4.82292 17.0104C4.49653 16.684 4.33333 16.2917 4.33333 15.8333V4.16667C4.33333 3.70833 4.49653 3.31597 4.82292 2.98958C5.14931 2.66319 5.54167 2.5 6 2.5H11C11.2361 2.5 11.434 2.57986 11.5937 2.73958C11.7535 2.89931 11.8333 3.09722 11.8333 3.33333C11.8333 3.56944 11.7535 3.76736 11.5937 3.92708C11.434 4.08681 11.2361 4.16667 11 4.16667H6V15.8333H11C11.2361 15.8333 11.434 15.9132 11.5937 16.0729C11.7535 16.2326 11.8333 16.4306 11.8333 16.6667C11.8333 16.9028 11.7535 17.1007 11.5937 17.2604C11.434 17.4201 11.2361 17.5 11 17.5H6ZM16.1458 10.8333H10.1667C9.93056 10.8333 9.73264 10.7535 9.57292 10.5938C9.41319 10.434 9.33333 10.2361 9.33333 10C9.33333 9.76389 9.41319 9.56597 9.57292 9.40625C9.73264 9.24653 9.93056 9.16667 10.1667 9.16667H16.1458L14.5833 7.60417C14.4306 7.45139 14.3542 7.26389 14.3542 7.04167C14.3542 6.81944 14.4306 6.625 14.5833 6.45833C14.7361 6.29167 14.9306 6.20486 15.1667 6.19792C15.4028 6.19097 15.6042 6.27083 15.7708 6.4375L18.75 9.41667C18.9167 9.58333 19 9.77778 19 10C19 10.2222 18.9167 10.4167 18.75 10.5833L15.7708 13.5625C15.6042 13.7292 15.4063 13.809 15.1771 13.8021C14.9479 13.7951 14.75 13.7083 14.5833 13.5417C14.4306 13.375 14.3576 13.1771 14.3646 12.9479C14.3715 12.7188 14.4514 12.5278 14.6042 12.375L16.1458 10.8333Z" fill="var(--fill-0, #5DCAA5)"/>
</g>
</svg>
