<svg preserveAspectRatio="none" width="100%" height="100%" overflow="visible" style="display: block;" viewBox="0 0 20 20" fill="none" xmlns="http://www.w3.org/2000/svg">
<g id="Frame">
<path id="Vector" d="M4.16667 15.8333C3.93056 15.8333 3.73264 15.7535 3.57292 15.5937C3.41319 15.434 3.33333 15.2361 3.33333 15C3.33333 14.7639 3.41319 14.566 3.57292 14.4062C3.73264 14.2465 3.93056 14.1667 4.16667 14.1667H5V8.33333C5 7.18056 5.34722 6.15625 6.04167 5.26042C6.73611 4.36458 7.63889 3.77778 8.75 3.5V2.91667C8.75 2.56944 8.87153 2.27431 9.11458 2.03125C9.35764 1.78819 9.65278 1.66667 10 1.66667C10.3472 1.66667 10.6424 1.78819 10.8854 2.03125C11.1285 2.27431 11.25 2.56944 11.25 2.91667V3.5C12.3611 3.77778 13.2639 4.36458 13.9583 5.26042C14.6528 6.15625 15 7.18056 15 8.33333V14.1667H15.8333C16.0694 14.1667 16.2674 14.2465 16.4271 14.4062C16.5868 14.566 16.6667 14.7639 16.6667 15C16.6667 15.2361 16.5868 15.434 16.4271 15.5937C16.2674 15.7535 16.0694 15.8333 15.8333 15.8333H4.16667ZM10 18.3333C9.54167 18.3333 9.14931 18.1701 8.82292 17.8437C8.49653 17.5174 8.33333 17.125 8.33333 16.6667H11.6667C11.6667 17.125 11.5035 17.5174 11.1771 17.8437C10.8507 18.1701 10.4583 18.3333 10 18.3333ZM6.66667 14.1667H13.3333V8.33333C13.3333 7.41667 13.0069 6.63194 12.3542 5.97917C11.7014 5.32639 10.9167 5 10 5C9.08333 5 8.29861 5.32639 7.64583 5.97917C6.99306 6.63194 6.66667 7.41667 6.66667 8.33333V14.1667Z" fill="var(--fill-0, #1A1A1A)" fill-opacity="0.7"/>
</g>
</svg>
