<svg preserveAspectRatio="none" width="100%" height="100%" overflow="visible" style="display: block;" viewBox="0 0 20 20" fill="none" xmlns="http://www.w3.org/2000/svg">
<g id="Frame">
<path id="Vector" d="M2.5 13C2.125 13 1.78125 12.8438 1.46875 12.5313C1.15625 12.2188 1 11.875 1 11.5V10.3125C1 10.2014 1.01042 10.0972 1.03125 10C1.05208 9.90278 1.08333 9.8125 1.125 9.72917L3.60417 3.91667C3.72917 3.625 3.96181 3.39583 4.30208 3.22917C4.64236 3.0625 4.97222 2.97917 5.29167 2.97917L14.5 3V13L9.625 17.875C9.36111 18.1389 9.05903 18.309 8.71875 18.3854C8.37847 18.4618 8.07292 18.4236 7.80208 18.2708C7.53125 18.1181 7.35764 17.8715 7.28125 17.5313C7.20486 17.191 7.20833 16.8194 7.29167 16.4167L8 13H2.5ZM13 12.375V4.5H5L2.5 10.3125V11.5H9.83333L8.8125 16.5417L13 12.375ZM17.5 3C17.9306 3 18.2882 3.14688 18.5729 3.44063C18.8576 3.73438 19 4.0875 19 4.5V11.5C19 11.9125 18.8576 12.2656 18.5729 12.5594C18.2882 12.8531 17.9306 13 17.5 13H14.5V11.5H17.5V4.5H14.5V3H17.5Z" fill="var(--fill-0, #5A5C5B)"/>
</g>
</svg>
