<svg preserveAspectRatio="none" width="100%" height="100%" overflow="visible" style="display: block;" viewBox="0 0 20 20" fill="none" xmlns="http://www.w3.org/2000/svg">
<path d="M8.95833 3.33333C6.02778 3.33333 3.64583 5.71528 3.64583 8.64583C3.64583 11.5764 6.02778 13.9583 8.95833 13.9583C10.1389 13.9583 11.2153 13.5764 12.0625 12.9583L15.5208 16.4167C15.7639 16.6597 16.0972 16.7708 16.4167 16.7292C16.7361 16.6875 17.0208 16.4931 17.1875 16.2083C17.3542 15.9236 17.3819 15.5764 17.2604 15.2708C17.1389 14.9653 16.8819 14.7361 16.5625 14.6458L13.1458 11.2292C13.8403 10.3403 14.2708 9.23611 14.2708 8.64583C14.2708 5.71528 11.8889 3.33333 8.95833 3.33333ZM8.95833 5.20833C10.8819 5.20833 12.3958 6.72222 12.3958 8.64583C12.3958 10.5694 10.8819 12.0833 8.95833 12.0833C7.03472 12.0833 5.52083 10.5694 5.52083 8.64583C5.52083 6.72222 7.03472 5.20833 8.95833 5.20833Z" fill="var(--fill-0, #5DCAA5)"/>
</svg>
