<svg preserveAspectRatio="none" width="100%" height="100%" overflow="visible" style="display: block;" viewBox="0 0 25 26" fill="none" xmlns="http://www.w3.org/2000/svg">
<g id="Frame">
<path id="Vector" d="M4.16667 21.6667V11.9167C3.59375 11.9167 3.1033 11.7045 2.69531 11.2802C2.28733 10.8559 2.08333 10.3458 2.08333 9.75V7.58333C2.08333 6.9875 2.28733 6.47743 2.69531 6.05312C3.1033 5.62882 3.59375 5.41667 4.16667 5.41667H7.5C7.41319 5.25417 7.35677 5.08264 7.33073 4.90208C7.30469 4.72153 7.29167 4.53194 7.29167 4.33333C7.29167 3.43056 7.59549 2.66319 8.20312 2.03125C8.81076 1.39931 9.54861 1.08333 10.4167 1.08333C10.816 1.08333 11.1892 1.16007 11.5365 1.31354C11.8837 1.46701 12.2049 1.67917 12.5 1.95C12.7951 1.66111 13.1163 1.44444 13.4635 1.3C13.8108 1.15556 14.184 1.08333 14.5833 1.08333C15.4514 1.08333 16.1892 1.39931 16.7969 2.03125C17.4045 2.66319 17.7083 3.43056 17.7083 4.33333C17.7083 4.53194 17.691 4.71701 17.6562 4.88854C17.6215 5.06007 17.5694 5.23611 17.5 5.41667H20.8333C21.4062 5.41667 21.8967 5.62882 22.3047 6.05312C22.7127 6.47743 22.9167 6.9875 22.9167 7.58333V9.75C22.9167 10.3458 22.7127 10.8559 22.3047 11.2802C21.8967 11.7045 21.4062 11.9167 20.8333 11.9167V21.6667C20.8333 22.2625 20.6293 22.7726 20.2214 23.1969C19.8134 23.6212 19.3229 23.8333 18.75 23.8333H6.25C5.67708 23.8333 5.18663 23.6212 4.77865 23.1969C4.37066 22.7726 4.16667 22.2625 4.16667 21.6667ZM13.8411 3.56146C13.6415 3.7691 13.5417 4.02639 13.5417 4.33333C13.5417 4.64028 13.6415 4.89757 13.8411 5.10521C14.0408 5.31285 14.2882 5.41667 14.5833 5.41667C14.8785 5.41667 15.1259 5.31285 15.3255 5.10521C15.5252 4.89757 15.625 4.64028 15.625 4.33333C15.625 4.02639 15.5252 3.7691 15.3255 3.56146C15.1259 3.35382 14.8785 3.25 14.5833 3.25C14.2882 3.25 14.0408 3.35382 13.8411 3.56146ZM9.375 4.33333C9.375 4.64028 9.47483 4.89757 9.67448 5.10521C9.87413 5.31285 10.1215 5.41667 10.4167 5.41667C10.7118 5.41667 10.9592 5.31285 11.1589 5.10521C11.3585 4.89757 11.4583 4.64028 11.4583 4.33333C11.4583 4.02639 11.3585 3.7691 11.1589 3.56146C10.9592 3.35382 10.7118 3.25 10.4167 3.25C10.1215 3.25 9.87413 3.35382 9.67448 3.56146C9.47483 3.7691 9.375 4.02639 9.375 4.33333ZM4.16667 7.58333V9.75H11.4583V7.58333H4.16667ZM11.4583 21.6667V11.9167H6.25V21.6667H11.4583ZM13.5417 21.6667H18.75V11.9167H13.5417V21.6667ZM20.8333 9.75V7.58333H13.5417V9.75H20.8333Z" fill="var(--fill-0, #085041)"/>
</g>
</svg>
