<svg preserveAspectRatio="none" width="100%" height="100%" overflow="visible" style="display: block;" viewBox="0 0 20 20" fill="none" xmlns="http://www.w3.org/2000/svg">
<g id="Frame" clip-path="url(#clip0_0_20)">
<g id="Vector">
</g>
<path id="Vector_2" d="M15.4167 6.66667C15.275 6.66667 15.1333 6.68333 15 6.70833V3.75C15 2.6 14.0667 1.66667 12.9167 1.66667C12.7583 1.66667 12.6083 1.68333 12.4667 1.71667C12.2917 0.741667 11.4417 0 10.4167 0C9.53333 0 8.78333 0.55 8.475 1.325C8.3 1.275 8.10833 1.25 7.91667 1.25C6.76667 1.25 5.83333 2.18333 5.83333 3.33333V3.79167C5.7 3.76667 5.55833 3.75 5.41667 3.75C4.26667 3.75 3.33333 4.68333 3.33333 5.83333V12.9167C3.33333 16.825 6.50833 20 10.4167 20C14.325 20 17.5 16.825 17.5 12.9167V8.75C17.5 7.6 16.5667 6.66667 15.4167 6.66667ZM15.8333 12.9167C15.8333 15.9083 13.4083 18.3333 10.4167 18.3333C7.425 18.3333 5 15.9083 5 12.9167V5.83333C5 5.6 5.18333 5.41667 5.41667 5.41667C5.65 5.41667 5.83333 5.6 5.83333 5.83333V10H7.5V3.33333C7.5 3.1 7.68333 2.91667 7.91667 2.91667C8.15 2.91667 8.33333 3.1 8.33333 3.33333V9.16667H10V2.08333C10 1.85 10.1833 1.66667 10.4167 1.66667C10.65 1.66667 10.8333 1.85 10.8333 2.08333V9.16667H12.5V3.75C12.5 3.51667 12.6833 3.33333 12.9167 3.33333C13.15 3.33333 13.3333 3.51667 13.3333 3.75V11.1833C11.8583 11.825 10.8333 13.2917 10.8333 15H12.5C12.5 13.6167 13.6167 12.5 15 12.5V8.75C15 8.51667 15.1833 8.33333 15.4167 8.33333C15.65 8.33333 15.8333 8.51667 15.8333 8.75V12.9167Z" fill="var(--fill-0, #5DCAA5)"/>
</g>
<defs>
<clipPath id="clip0_0_20">
<rect width="20" height="20" fill="white"/>
</clipPath>
</defs>
</svg>
